<?xml version="1.0" standalone="no"?>
<!DOCTYPE svg PUBLIC "-//W3C//DTD SVG 20010904//EN"
 "http://www.w3.org/TR/2001/REC-SVG-20010904/DTD/svg10.dtd">
<svg version="1.0" xmlns="http://www.w3.org/2000/svg"
 width="250.000000pt" height="296.000000pt" viewBox="0 0 250.000000 296.000000"
 preserveAspectRatio="xMidYMid meet">

<g transform="translate(0.000000,296.000000) scale(0.100000,-0.100000)"
fill="#000000" stroke="none">
<path d="M10 1673 c0 -1367 -1 -1323 50 -1423 30 -60 119 -151 178 -183 61
-33 153 -59 194 -55 l33 3 3 412 2 412 763 3 762 3 67 26 c190 74 326 211 396
397 34 90 42 266 17 362 -53 209 -212 383 -417 458 l-73 27 -572 3 -573 3 0
-403 c0 -222 -4 -409 -8 -416 -7 -9 -51 -12 -185 -10 -97 2 -177 6 -177 11 0
4 0 273 0 597 l0 590 1011 0 1012 0 -5 64 c-12 142 -123 292 -268 360 l-65 31
-1072 3 -1073 2 0 -1277z m1926 -32 c59 -33 94 -92 94 -159 0 -59 -9 -83 -49
-125 -55 -60 -59 -61 -383 -65 l-298 -4 0 184 c0 102 3 188 8 192 4 4 138 6
297 4 282 -3 291 -4 331 -27z"/>
<path d="M840 492 c0 -156 32 -243 123 -339 79 -84 203 -143 299 -143 l38 0 0
295 0 295 -230 0 -230 0 0 -108z"/>
</g>
</svg>
