<?xml version="1.0" standalone="no"?>
<!DOCTYPE svg PUBLIC "-//W3C//DTD SVG 20010904//EN"
 "http://www.w3.org/TR/2001/REC-SVG-20010904/DTD/svg10.dtd">
<svg version="1.0" xmlns="http://www.w3.org/2000/svg"
 width="512.000000pt" height="512.000000pt" viewBox="0 0 512.000000 512.000000"
 preserveAspectRatio="xMidYMid meet">

<g transform="translate(0.000000,512.000000) scale(0.100000,-0.100000)"
fill="#000000" stroke="none">
<path d="M655 5047 c-213 -55 -366 -280 -328 -484 6 -32 169 -496 363 -1031
l351 -972 -351 -973 c-194 -534 -357 -998 -363 -1030 -30 -162 67 -356 221
-440 133 -72 271 -74 407 -5 28 14 595 337 1260 718 666 381 1475 844 1799
1029 443 252 604 349 647 389 182 167 182 457 0 624 -44 40 -211 140 -682 409
-343 196 -1153 659 -1799 1029 -646 370 -1207 688 -1247 707 -59 28 -87 36
-150 39 -44 2 -100 -2 -128 -9z"/>
</g>
</svg>
