<?xml version="1.0" standalone="no"?>
<!DOCTYPE svg PUBLIC "-//W3C//DTD SVG 20010904//EN"
 "http://www.w3.org/TR/2001/REC-SVG-20010904/DTD/svg10.dtd">
<svg version="1.0" xmlns="http://www.w3.org/2000/svg"
 width="512.000000pt" height="512.000000pt" viewBox="0 0 512.000000 512.000000"
 preserveAspectRatio="xMidYMid meet">

<g transform="translate(0.000000,512.000000) scale(0.100000,-0.100000)"
fill="#000000" stroke="none">
<path d="M2480 4464 c-45 -20 -87 -59 -111 -106 -18 -36 -19 -74 -19 -1083 0
-575 -3 -1045 -8 -1045 -4 0 -120 113 -257 251 -138 138 -267 259 -287 270
-69 35 -179 20 -236 -34 -64 -59 -86 -174 -48 -247 25 -49 901 -926 951 -952
54 -28 136 -28 190 0 50 26 926 903 951 952 37 74 15 189 -48 247 -57 54 -167
69 -236 34 -20 -11 -149 -132 -287 -270 -137 -138 -253 -251 -257 -251 -5 0
-8 470 -8 1045 0 1009 -1 1047 -19 1083 -53 102 -172 149 -271 106z"/>
<path d="M802 1060 c-84 -20 -162 -116 -162 -199 0 -94 64 -184 146 -209 60
-18 3488 -18 3548 0 57 17 119 82 135 141 27 95 -13 195 -97 244 l-47 28
-1745 2 c-960 0 -1760 -2 -1778 -7z"/>
</g>
</svg>
