<?xml version="1.0" standalone="no"?>
<!DOCTYPE svg PUBLIC "-//W3C//DTD SVG 20010904//EN"
 "http://www.w3.org/TR/2001/REC-SVG-20010904/DTD/svg10.dtd">
<svg version="1.0" xmlns="http://www.w3.org/2000/svg"
 width="512.000000pt" height="512.000000pt" viewBox="0 0 512.000000 512.000000"
 preserveAspectRatio="xMidYMid meet">

<g transform="translate(0.000000,512.000000) scale(0.100000,-0.100000)"
fill="#000000" stroke="none">
<path d="M2503 5100 c-68 -41 -63 118 -63 -1957 l0 -1878 -702 702 c-623 622
-707 702 -741 708 -94 18 -176 -81 -134 -161 27 -50 1638 -1652 1669 -1659 16
-4 40 -4 55 -1 19 5 290 269 846 824 650 650 820 824 829 854 23 78 -54 159
-137 144 -36 -7 -106 -73 -742 -709 l-703 -702 0 1884 c0 1757 -1 1885 -17
1912 -19 31 -68 59 -105 59 -12 0 -37 -9 -55 -20z"/>
<path d="M513 1908 c-17 -4 -43 -22 -57 -39 l-26 -31 0 -655 c0 -725 -1 -713
65 -842 84 -166 243 -289 420 -326 105 -22 3185 -22 3290 0 177 37 336 160
420 326 66 129 65 117 65 844 l0 657 -34 34 c-40 40 -78 46 -139 22 -63 -25
-61 -7 -67 -728 l-5 -655 -28 -57 c-39 -79 -104 -143 -185 -181 l-67 -32
-1605 0 -1605 0 -65 31 c-80 38 -149 105 -187 182 l-28 57 -5 655 c-6 721 -4
704 -67 728 -49 18 -57 19 -90 10z"/>
</g>
</svg>
